<?xml version="1.0" encoding="UTF-8"?>
<!DOCTYPE svg PUBLIC "-//W3C//DTD SVG 1.1//EN" "http://www.w3.org/Graphics/SVG/1.1/DTD/svg11.dtd">
<svg xmlns="http://www.w3.org/2000/svg" version="1.1" width="700px" height="700px" style="shape-rendering:geometricPrecision; text-rendering:geometricPrecision; image-rendering:optimizeQuality; fill-rule:evenodd; clip-rule:evenodd" xmlns:xlink="http://www.w3.org/1999/xlink">
<g><path style="opacity:0.945" fill="#070a04" d="M 471.5,114.5 C 470.778,114.918 470.278,115.584 470,116.5C 469.503,119.146 469.336,121.813 469.5,124.5C 469.768,126.099 469.434,127.432 468.5,128.5C 466.72,129.99 466.054,131.99 466.5,134.5C 458.116,160.349 444.95,183.349 427,203.5C 411.279,219.221 395.613,234.887 380,250.5C 378.586,259.418 378.086,268.418 378.5,277.5C 420.48,265.722 462.48,265.555 504.5,277C 513.045,279.852 520.545,284.352 527,290.5C 527.333,295.833 527.667,301.167 528,306.5C 543.168,293.671 559.668,282.837 577.5,274C 601.688,267.616 622.188,273.783 639,292.5C 652.8,311.091 664.3,331.091 673.5,352.5C 674.72,357.831 676.72,362.831 679.5,367.5C 686.374,387.331 691.208,407.664 694,428.5C 694.667,436.167 694.667,443.833 694,451.5C 690.729,444.622 687.229,437.955 683.5,431.5C 683.573,429.973 682.906,428.973 681.5,428.5C 675.778,418.734 669.778,409.068 663.5,399.5C 661.86,395.848 659.526,392.848 656.5,390.5C 642.289,369.789 624.622,352.622 603.5,339C 599.371,336.679 595.037,334.846 590.5,333.5C 573.146,360.864 557.312,389.198 543,418.5C 538.494,426.18 533.494,433.513 528,440.5C 527.909,504.51 527.243,568.51 526,632.5C 524.622,637.208 521.788,640.708 517.5,643C 494.061,644.152 470.561,644.652 447,644.5C 376.487,644.11 305.987,644.11 235.5,644.5C 219.838,646.096 211.338,639.096 210,623.5C 209.849,597.872 210.015,572.206 210.5,546.5C 210.5,537.167 210.5,527.833 210.5,518.5C 210.667,491.165 210.5,463.831 210,436.5C 191.33,408.835 175.497,379.502 162.5,348.5C 159.261,340.353 155.261,332.686 150.5,325.5C 149.476,321.43 147.476,318.096 144.5,315.5C 142.364,313.188 140.364,310.688 138.5,308C 136.595,306.579 134.595,305.412 132.5,304.5C 127.629,304.192 122.963,305.025 118.5,307C 99.5583,316.631 83.5583,329.798 70.5,346.5C 70.1667,347.5 69.5,348.167 68.5,348.5C 66.4131,349.585 65.0798,351.251 64.5,353.5C 41.7555,382.622 22.2555,413.955 6,447.5C 5.50999,446.207 5.34332,444.873 5.5,443.5C 6.16956,431.138 7.16956,418.805 8.5,406.5C 8.42993,402.575 9.09659,398.909 10.5,395.5C 11.7846,392.411 12.4512,389.078 12.5,385.5C 16.6571,370.553 20.9904,355.553 25.5,340.5C 27.2671,338.208 28.2671,335.542 28.5,332.5C 31.3507,327.459 33.684,322.125 35.5,316.5C 38.6745,311.484 41.3412,306.151 43.5,300.5C 43.6596,298.847 44.3263,297.514 45.5,296.5C 46.9063,296.027 47.573,295.027 47.5,293.5C 58.2735,273.544 71.6069,255.378 87.5,239C 112.041,222.933 137.374,221.6 163.5,235C 180.739,245.065 196.406,257.231 210.5,271.5C 210.168,225.836 210.501,180.17 211.5,134.5C 211.5,131.167 211.5,127.833 211.5,124.5C 211.334,120.154 211.501,115.821 212,111.5C 212.278,110.584 212.778,109.918 213.5,109.5C 215.587,108.415 216.92,106.749 217.5,104.5C 225.454,97.2665 234.621,91.9331 245,88.5C 261.421,83.0491 278.255,79.7157 295.5,78.5C 304.017,78.2676 312.35,77.6009 320.5,76.5C 336.892,75.1972 352.892,77.0306 368.5,82C 370.862,83.5106 373.195,85.0106 375.5,86.5C 377.495,89.638 378.828,93.138 379.5,97C 379.756,108.804 379.423,120.638 378.5,132.5C 390.851,129.658 401.851,124.158 411.5,116C 424.527,103.488 436.193,89.988 446.5,75.5C 449.579,72.3495 451.913,68.6829 453.5,64.5C 455.36,60.761 457.693,57.4277 460.5,54.5C 467.572,63.8743 471.405,74.541 472,86.5C 472.78,95.8807 472.613,105.214 471.5,114.5 Z"/></g>
<g><path style="opacity:0.202" fill="#3b753a" d="M 453.5,64.5 C 451.913,68.6829 449.579,72.3495 446.5,75.5C 447.072,70.6841 449.405,67.0174 453.5,64.5 Z"/></g>
<g><path style="opacity:1" fill="#418140" d="M 461.5,65.5 C 463.311,67.3854 464.478,69.7187 465,72.5C 470.884,107.975 464.217,140.975 445,171.5C 436.765,183.737 427.765,195.404 418,206.5C 405,219.167 392,231.833 379,244.5C 378.333,223.833 378.333,203.167 379,182.5C 390.212,172.953 401.712,163.786 413.5,155C 439.606,130.623 455.606,100.79 461.5,65.5 Z"/></g>
<g><path style="opacity:1" fill="#40803f" d="M 456.5,67.5 C 457.629,69.6282 457.796,71.9615 457,74.5C 448.682,102.783 434.515,127.616 414.5,149C 402.393,158.14 390.559,167.64 379,177.5C 378.5,163.837 378.333,150.171 378.5,136.5C 384.447,136.096 390.113,134.596 395.5,132C 421.619,115.894 441.952,94.3944 456.5,67.5 Z"/></g>
<g><path style="opacity:0.72" fill="#42aa44" d="M 316.5,76.5 C 331.702,75.0946 347.035,75.2613 362.5,77C 368.396,78.2582 372.73,81.4249 375.5,86.5C 373.195,85.0106 370.862,83.5106 368.5,82C 352.892,77.0306 336.892,75.1972 320.5,76.5C 319.167,76.5 317.833,76.5 316.5,76.5 Z"/></g>
<g><path style="opacity:0.969" fill="#245d25" d="M 316.5,76.5 C 317.833,76.5 319.167,76.5 320.5,76.5C 312.35,77.6009 304.017,78.2676 295.5,78.5C 302.279,77.0167 309.279,76.35 316.5,76.5 Z"/></g>
<g><path style="opacity:1" fill="#f6f199" d="M 311.5,80.5 C 323.171,80.3335 334.838,80.5001 346.5,81C 354.545,81.5946 362.212,83.5946 369.5,87C 373.048,89.5907 374.382,93.0907 373.5,97.5C 348.004,110.944 321.004,120.11 292.5,125C 268.501,128.825 245.167,126.492 222.5,118C 219.885,117.205 217.885,115.705 216.5,113.5C 219.995,107.839 224.662,103.339 230.5,100C 241.851,93.8828 253.851,89.5495 266.5,87C 281.591,84.4741 296.591,82.3074 311.5,80.5 Z"/></g>
<g><path style="opacity:1" fill="#a4ce3e" d="M 215.5,121.5 C 227.962,127.916 241.295,130.916 255.5,130.5C 278.593,131.268 301.26,128.601 323.5,122.5C 339.461,119.402 354.461,113.735 368.5,105.5C 369.298,105.043 369.631,104.376 369.5,103.5C 370.641,102.661 371.974,101.994 373.5,101.5C 374.667,149.497 374.833,197.497 374,245.5C 371.921,251.247 368.088,255.414 362.5,258C 317.5,258.667 272.5,258.667 227.5,258C 221.667,256.167 217.833,252.333 216,246.5C 215.5,204.835 215.333,163.168 215.5,121.5 Z"/></g>
<g><path style="opacity:0.569" fill="#2a6b2b" d="M 217.5,104.5 C 216.92,106.749 215.587,108.415 213.5,109.5C 214.08,107.251 215.413,105.585 217.5,104.5 Z"/></g>
<g><path style="opacity:0.999" fill="#48a942" d="M 369.5,103.5 C 369.631,104.376 369.298,105.043 368.5,105.5C 354.461,113.735 339.461,119.402 323.5,122.5C 339.253,117.294 354.586,110.96 369.5,103.5 Z"/></g>
<g><path style="opacity:0.506" fill="#356934" d="M 471.5,114.5 C 471.678,118.122 471.011,121.456 469.5,124.5C 469.336,121.813 469.503,119.146 470,116.5C 470.278,115.584 470.778,114.918 471.5,114.5 Z"/></g>
<g><path style="opacity:1" fill="#4cb044" d="M 255.5,130.5 C 241.295,130.916 227.962,127.916 215.5,121.5C 215.369,120.624 215.702,119.957 216.5,119.5C 229.049,125.217 242.049,128.884 255.5,130.5 Z"/></g>
<g><path style="opacity:0.062" fill="#a4cf3e" d="M 211.5,124.5 C 211.5,127.833 211.5,131.167 211.5,134.5C 208.833,131.167 208.833,127.833 211.5,124.5 Z"/></g>
<g><path style="opacity:0.69" fill="#2b542a" d="M 468.5,128.5 C 468.405,130.786 467.738,132.786 466.5,134.5C 466.054,131.99 466.72,129.99 468.5,128.5 Z"/></g>
<g><path style="opacity:1" fill="#46b648" d="M 117.5,230.5 C 126.213,230.248 134.88,230.748 143.5,232C 159.899,237.424 174.565,245.757 187.5,257C 195.333,264.167 203.167,271.333 211,278.5C 211.667,328.833 211.667,379.167 211,429.5C 203.165,417.834 195.831,405.834 189,393.5C 176.563,367.167 163.563,341.167 150,315.5C 138.333,299.833 126.667,284.167 115,268.5C 107.538,259.369 99.7048,250.536 91.5,242C 99.6588,236.748 108.325,232.915 117.5,230.5 Z"/></g>
<g><path style="opacity:1" fill="#418140" d="M 87.5,244.5 C 88.2389,244.369 88.9056,244.536 89.5,245C 105.307,262.468 119.973,280.801 133.5,300C 122.269,301.115 111.935,304.781 102.5,311C 79.594,327.674 60.4273,347.84 45,371.5C 32.8723,389.64 21.539,408.307 11,427.5C 16.7552,358.02 42.2552,297.02 87.5,244.5 Z"/></g>
<g><path style="opacity:1" fill="#a4ce3e" d="M 373.5,254.5 C 374.821,263.009 374.821,271.675 373.5,280.5C 367.402,282.114 362.568,285.447 359,290.5C 358.852,336.004 359.352,381.504 360.5,427C 360.333,431.833 360.167,436.667 360,441.5C 359.242,445.922 356.742,448.755 352.5,450C 310.817,450.916 269.15,450.582 227.5,449C 222.16,447.59 218.327,444.423 216,439.5C 215.333,378.167 215.333,316.833 216,255.5C 219.297,258.567 223.131,260.733 227.5,262C 272.5,262.667 317.5,262.667 362.5,262C 366.893,260.477 370.56,257.977 373.5,254.5 Z"/></g>
<g><path style="opacity:1" fill="#f6f09a" d="M 419.5,273.5 C 442.284,272.723 464.951,273.89 487.5,277C 498.536,279.233 508.869,283.233 518.5,289C 525.167,292.333 525.167,295.667 518.5,299C 503.686,306.288 488.019,310.621 471.5,312C 442.916,315.929 414.582,314.596 386.5,308C 377.212,305.942 369.379,301.442 363,294.5C 363.568,290.248 366.068,287.414 370.5,286C 386.403,279.86 402.736,275.694 419.5,273.5 Z"/></g>
<g><path style="opacity:1" fill="#46b548" d="M 590.5,274.5 C 597.958,275.244 605.292,276.744 612.5,279C 617.455,280.476 621.788,282.976 625.5,286.5C 620.855,289.977 616.355,293.644 612,297.5C 603.427,307.65 595.093,317.984 587,328.5C 570.317,356.526 554.651,385.193 540,414.5C 536.25,421.002 532.25,427.335 528,433.5C 527.333,393.167 527.333,352.833 528,312.5C 546.49,295.845 567.324,283.178 590.5,274.5 Z"/></g>
<g><path style="opacity:1" fill="#418140" d="M 627.5,289.5 C 633.813,293.648 638.98,298.981 643,305.5C 668.635,343.737 683.968,385.737 689,431.5C 672.343,401.499 651.843,374.333 627.5,350C 616.804,341.315 605.137,334.149 592.5,328.5C 602.451,313.886 614.118,300.886 627.5,289.5 Z"/></g>
<g><path style="opacity:0.541" fill="#346733" d="M 47.5,293.5 C 47.573,295.027 46.9063,296.027 45.5,296.5C 45.427,294.973 46.0937,293.973 47.5,293.5 Z"/></g>
<g><path style="opacity:1" fill="#a4ce3e" d="M 362.5,300.5 C 379.19,311.094 397.524,316.594 417.5,317C 449.174,319.665 480.174,316.332 510.5,307C 514.987,305.397 519.154,303.23 523,300.5C 523.667,346.167 523.667,391.833 523,437.5C 521.91,443.588 518.41,447.421 512.5,449C 465.083,449.99 417.75,449.657 370.5,448C 366.217,444.162 364.05,439.329 364,433.5C 363.547,389.165 363.047,344.832 362.5,300.5 Z"/></g>
<g><path style="opacity:0.544" fill="#3d793c" d="M 132.5,304.5 C 120.059,307.553 108.726,313.053 98.5,321C 88.6976,328.968 79.3642,337.468 70.5,346.5C 83.5583,329.798 99.5583,316.631 118.5,307C 122.963,305.025 127.629,304.192 132.5,304.5 Z"/></g>
<g><path style="opacity:0.186" fill="#3b763a" d="M 43.5,300.5 C 41.3412,306.151 38.6745,311.484 35.5,316.5C 37.1263,310.581 39.7929,305.247 43.5,300.5 Z"/></g>
<g><path style="opacity:0.463" fill="#358436" d="M 144.5,315.5 C 147.476,318.096 149.476,321.43 150.5,325.5C 148.012,322.534 146.012,319.201 144.5,315.5 Z"/></g>
<g><path style="opacity:0.135" fill="#3b753a" d="M 35.5,316.5 C 33.684,322.125 31.3507,327.459 28.5,332.5C 29.7662,326.64 32.0995,321.307 35.5,316.5 Z"/></g>
<g><path style="opacity:0.165" fill="#3a743a" d="M 28.5,332.5 C 28.2671,335.542 27.2671,338.208 25.5,340.5C 25.7329,337.458 26.7329,334.792 28.5,332.5 Z"/></g>
<g><path style="opacity:0.325" fill="#41a943" d="M 150.5,325.5 C 155.261,332.686 159.261,340.353 162.5,348.5C 157.739,341.314 153.739,333.647 150.5,325.5 Z"/></g>
<g><path style="opacity:0.039" fill="#3a7339" d="M 68.5,348.5 C 67.9202,350.749 66.5869,352.415 64.5,353.5C 65.0798,351.251 66.4131,349.585 68.5,348.5 Z"/></g>
<g><path style="opacity:1" fill="#2a5429" d="M 25.5,340.5 C 20.9904,355.553 16.6571,370.553 12.5,385.5C 15.0441,369.88 19.3774,354.88 25.5,340.5 Z"/></g>
<g><path style="opacity:0.144" fill="#3c763b" d="M 673.5,352.5 C 676.648,356.923 678.648,361.923 679.5,367.5C 676.72,362.831 674.72,357.831 673.5,352.5 Z"/></g>
<g><path style="opacity:0.847" fill="#2d5a2c" d="M 12.5,385.5 C 12.4512,389.078 11.7846,392.411 10.5,395.5C 10.322,391.878 10.9886,388.544 12.5,385.5 Z"/></g>
<g><path style="opacity:0.109" fill="#3c773b" d="M 656.5,390.5 C 659.526,392.848 661.86,395.848 663.5,399.5C 661.983,399.489 660.816,398.823 660,397.5C 658.82,395.14 657.653,392.807 656.5,390.5 Z"/></g>
<g><path style="opacity:0.718" fill="#2f5d2e" d="M 8.5,406.5 C 7.16956,418.805 6.16956,431.138 5.5,443.5C 4.70888,431.069 5.70888,418.736 8.5,406.5 Z"/></g>
<g><path style="opacity:0.035" fill="#3b763a" d="M 681.5,428.5 C 682.906,428.973 683.573,429.973 683.5,431.5C 682.094,431.027 681.427,430.027 681.5,428.5 Z"/></g>
<g><path style="opacity:1" fill="#a4ce3e" d="M 214.5,445.5 C 221.643,452.603 230.31,455.436 240.5,454C 278.5,454.667 316.5,454.667 354.5,454C 356.081,453.293 357.581,452.46 359,451.5C 359.333,510.167 359.667,568.833 360,627.5C 360.361,632.055 362.194,635.888 365.5,639C 318.167,639.667 270.833,639.667 223.5,639C 218.851,636.545 216.017,632.712 215,627.5C 214.5,566.834 214.333,506.168 214.5,445.5 Z"/></g>
<g><path style="opacity:1" fill="#a4ce3e" d="M 521.5,448.5 C 522.498,475.995 522.831,503.662 522.5,531.5C 522.667,564.168 522.5,596.835 522,629.5C 520.594,634.573 517.428,638.073 512.5,640C 465.819,640.908 419.153,640.574 372.5,639C 367.901,637.402 365.068,634.235 364,629.5C 363.333,568.5 363.333,507.5 364,446.5C 366.264,449.433 369.098,451.6 372.5,453C 418.833,453.667 465.167,453.667 511.5,453C 515.236,452.297 518.569,450.797 521.5,448.5 Z"/></g>
<g><path style="opacity:1" fill="#6f8c2a" d="M 522.5,531.5 C 522.831,503.662 522.498,475.995 521.5,448.5C 521.783,447.711 522.283,447.044 523,446.5C 523.83,475.003 523.664,503.336 522.5,531.5 Z"/></g>
<g><path style="opacity:0.195" fill="#a4cf3e" d="M 210.5,518.5 C 210.5,527.833 210.5,537.167 210.5,546.5C 206.969,537.064 206.969,527.731 210.5,518.5 Z"/></g>
</svg>
